<?xml version="1.0" encoding="utf-8"?>
<!-- Generator: Adobe Illustrator 17.0.0, SVG Export Plug-In . SVG Version: 6.00 Build 0)  -->
<!DOCTYPE svg PUBLIC "-//W3C//DTD SVG 1.1//EN" "http://www.w3.org/Graphics/SVG/1.1/DTD/svg11.dtd">
<svg version="1.1" id="Layer_1" xmlns="http://www.w3.org/2000/svg" xmlns:xlink="http://www.w3.org/1999/xlink" x="0px" y="0px"
	 width="358.04px" height="170.714px" viewBox="0 0 358.04 170.714" enable-background="new 0 0 358.04 170.714"
	 xml:space="preserve">
<path d="M296.454,158.077c-0.75-1.236-2.804-1.943-5.24-0.912c-0.669,0.226-10.659,1.048-19.59-3.831
	c-3.459-1.888-8.378-4.324-13.233-5.864c-1.159-7.035-7.235-11.359-13.13-15.557c-3.764-2.678-7.652-5.447-10.057-8.845l-0.005-0.3
	l-0.15,0.079c-0.042-0.064-0.088-0.128-0.131-0.195c-0.552-0.845-1.476-1.157-2.473-0.864c-1.41,0.433-2.629,1.952-2.61,3.252
	c0.003,0.147,0.007,0.333,0.015,0.555l-0.169,0.09l0.183,0.281c0.024,0.555,0.059,1.269,0.1,2.105
	c0.336,6.876,1.359,27.794-2.038,30.318c-0.257,0.188-0.51,0.219-0.838,0.1c-2.272-0.812-3.317-4.731-3.826-8.6
	c0.1-0.929,0.174-1.8,0.24-2.571c0.662-7.812,0.093-15.907-0.574-22.847l0.105-1.012l-0.233,0.093
	c-0.317-1.174-1.279-1.279-1.593-1.281h-0.009c-1.491,0-3.512,1.807-3.672,3.29c-0.002,0.026-0.007,0.055-0.009,0.084l-0.022,0.009
	l0.01,0.11c-0.634,6.395-0.619,13.309,0.043,21.127l0.033,0.384c0.109,1.3,0.255,3.057,0.54,4.952
	c-0.457,2.828-1.15,4.355-1.861,5.143c-0.431,0.476-0.905,0.709-1.45,0.709h-0.005c-3.888,0-4.738-10.09-5.017-13.406l-0.076-0.855
	c-0.421-4.557-0.388-9.224-0.357-13.738l0.014-2.362l0.098-1.026l-0.221,0.06c-0.279-0.903-0.977-1.276-1.639-1.31
	c-1.38-0.083-3.033,1.174-3.497,2.676l-0.107,0.029L204,128.68c-0.276,2.864-0.326,5.874-0.373,8.786
	c-0.105,6.499-0.217,13.223-2.819,19.078c-0.746,1.678-1.193,1.892-1.188,1.916c-0.481-0.247-1.153-2.75-1.224-5.231
	c-0.074-2.585,0.009-5.23,0.09-7.79c0.079-2.509,0.162-5.102,0.098-7.657c-0.098-4.107-0.388-8.038-2.836-11.018
	c-0.873-1.065-2.128-1.627-3.628-1.627h-0.005c-2.128,0.003-4.569,1.167-5.94,2.831c-0.291-1.197-0.664-2.385-1.138-3.554
	c-0.867-2.126-2.668-3.795-4.939-4.576c-2.228-0.772-4.616-0.572-6.555,0.54c-4.86,2.81-5.878,9.709-6.552,14.273
	c-0.138,0.919-0.229,2.698-0.343,4.95c-0.33,6.474-0.944,18.526-3.679,20.692c-0.289,0.227-0.569,0.303-0.893,0.246
	c-6.377-1.162-5.931-10.779-5.691-15.945l0.015-0.314c0.15-2.953,0.534-5.955,0.906-8.862c0.452-3.528,0.919-7.178,0.979-10.809
	c0.031-1.95-1.231-2.214-1.617-2.248c-1.453-0.123-3.487,1.55-3.748,3.157l0.729,0.117l0.252,0.259
	c-0.718,4.395-1.649,8.553-2.636,12.945c-0.41,1.827-0.822,3.662-1.22,5.522l-0.272,1.342c-0.894,4.488-2.986,15-7.653,15.269
	c-1.078,0.033-1.895-0.298-2.563-1.083c-3.153-3.715-2.498-15.752,1.944-35.775l0.321-1.457c0.437-2.055,0.891-4.131,1.351-6.224
	c4.06-18.537,8.664-39.547,3.376-58.369c-2.77-9.816-8.886-13.054-13.528-14.042c-9.583-2.044-20.078,3.47-25.491,9.969
	c-2.839,3.408-5.887,8.537-9.202,15.504c-3.543-9.678-8.95-19.972-16.54-23.144c-4.453-1.864-9.206-1.127-14.13,2.185
	C59.886,53.767,53.988,62.322,50,74.106c-4.723-10.485-11.641-21.998-22.089-23.664c-9.094-1.447-19.006,6.523-22.578,14.877
	c-4.232,9.918-5.959,21.282-5.132,33.777c0.672,9.944,3.373,23.237,6.881,33.867c2.819,8.536,6.743,16.526,10.538,24.257
	c1.964,4.002,3.996,8.14,5.869,12.335c0.333,0.755,0.949,1.159,1.683,1.159c0.313,0,0.648-0.073,0.99-0.223
	c1.593-0.705,2.952-2.836,2.247-4.436c-4.136-9.238-7.676-18.761-10.593-26.856l-0.609-1.691
	c-2.796-7.747-5.687-15.758-7.338-23.856c-4.387-21.48-3.294-38.025,3.249-49.18c1.973-3.387,4.892-5.723,8.22-6.576
	c2.958-0.76,6.003-0.271,8.805,1.415c6.289,3.754,10.531,10.959,14.012,17.417c1.15,2.137,2.241,4.324,3.273,6.553
	c-1.536,6.71-2.586,14.231-3.145,22.548c-0.86,12.894-1.672,25.073-0.506,38.36c0.459,5.179,2.656,14.238,6.829,17.966
	c1.632,1.467,4.04,2.074,6.608,1.664c2.615-0.419,4.885-1.807,5.923-3.616c2.999-5.209,3.067-13.678,2.856-19.597
	c-0.235-6.483-0.957-13.357-2.341-22.285c-1.798-11.545-4.764-22.378-9.07-33.112l-0.169-0.426
	c2.044-10.676,7.691-20.518,15.661-27.213c4.12-3.428,7.861-4.346,11.429-2.804c7.461,3.186,11.192,14.058,13.47,22.191
	c-1.525,3.57-3.103,7.497-4.742,11.79c-4.712,12.358-5.301,21.151-5.731,27.569c-0.063,0.948-0.123,1.843-0.192,2.686
	c-0.378,4.476-1.851,27.068,6.248,32.208c2.623,1.665,5.922,1.374,9.805-0.873c2.879-1.657,4.9-6.029,5.415-8.6
	c0.909-4.467,1.317-8.395,1.409-13.557c0.208-12.59-0.991-25.889-3.564-39.529c-0.202-1.066-0.89-4.539-2.119-9.089
	c1.723-3.434,3.349-6.689,4.743-9.925c2.972-6.888,11.514-17.179,21.206-18.49c3.029-0.415,5.655,0.297,7.794,2.111
	c5.909,5.016,7.1,17.073,7.285,23.812c0.276,11.26-1.732,22.637-3.674,33.642c-0.38,2.147-0.757,4.29-1.119,6.431
	c-0.569,3.402-1.294,6.883-1.994,10.249c-1.998,9.595-4.065,19.519-2.976,29.497c0.188,1.766,0.951,6.123,3.958,8.409
	c1.485,1.129,3.246,1.538,5.248,1.2c5.08-0.857,8.036-5.675,9.604-9.474c0.488,1.929,1.259,3.755,2.455,5.317
	c1.552,2.033,3.761,3.376,6.06,3.683c0.341,0.045,0.679,0.069,1.015,0.069c1.613,0,3.144-0.526,4.473-1.545
	c3.845-2.938,4.661-8.859,5.274-13.309c0.368-2.648,0.513-5.338,0.654-7.94c0.113-2.088,0.23-4.248,0.461-6.357l0.029-0.267
	c0.299-2.874,1.094-10.511,3.821-11.58c0.874-0.348,1.992,0.073,3.325,1.242c3.381,2.96,2.608,11.174,2.147,16.081
	c-0.081,0.857-0.155,1.638-0.202,2.314c-0.122,1.848-0.308,3.705-0.494,5.567c-0.383,3.849-0.779,7.823-0.609,11.763l-0.087,1.017
	l0.183-0.071c0.232,0.912,0.924,1.257,1.558,1.266c1.435,0.05,3.599-1.833,3.723-3.302c0-0.021,0.002-0.043,0.005-0.067l0.005-0.002
	l-0.003-0.031c0.222-2.607,0.386-5.219,0.55-7.831c0.219-3.535,0.448-7.192,0.826-10.773c0.667-6.317,2.1-10.926,3.572-11.466
	c0.133-0.055,0.552-0.21,1.347,0.547c2.11,2.005,1.817,7.421,1.624,11.005c-0.041,0.754-0.076,1.435-0.088,2.004
	c-0.019,1.129-0.06,2.257-0.098,3.391c-0.121,3.535-0.247,7.19,0.191,10.766c0.131,1.107,0.628,3.821,2.409,5.097
	c0.85,0.61,1.838,0.796,2.945,0.558c4.126-0.87,6.186-4.562,7.383-7.476c0.827,2.407,1.948,4.387,3.469,5.633
	c1.614,1.323,3.569,1.738,5.788,1.228c2.25-0.521,3.857-1.862,5.019-3.614c1.207,2.386,2.976,4.14,5.59,4.317
	c0.179,0.011,0.355,0.016,0.527,0.016c5.278,0,8.423-5.278,9.354-15.702c0.455-5.252,0.136-10.525-0.171-15.625
	c-0.017-0.265-0.034-0.526-0.048-0.791c1.807,1.5,3.731,2.864,5.54,4.148c0.614,0.435,1.222,0.866,1.81,1.293l0.173,0.126
	c3.267,2.366,6.624,4.802,8.307,8.288c-1.995-0.134-3.819,0.061-5.333,0.719c-3.943,1.716-7.04,6.016-7.361,10.221
	c-0.222,2.892,0.897,5.269,3.149,6.69c3.272,2.069,9.595,0.574,12.093-1.412c2.545-2.028,4.057-5.24,4.509-9.569
	c3.595,1.453,7.379,3.476,10.617,5.212c3.261,1.745,6.078,3.252,7.795,3.681c4.545,1.124,15.18,2.419,19.03-0.76
	C296.783,160.051,297.004,158.984,296.454,158.077 M101.533,136.461c-0.27,2.805-0.756,4.778-2.673,7.785
	c-0.702,1.093-1.739,1.757-2.772,1.776c-1.017-0.035-2.009-0.604-2.836-1.797c-2.129-3.069-2.28-8.157-2.401-12.245l-0.044-1.359
	c-0.375-9.762-0.043-17.993,1.047-25.909c0.79-5.707,3.078-11.521,5.774-17.272c2.276,10.389,3.649,21.719,4.09,33.779
	C101.91,126.325,102.075,130.737,101.533,136.461 M59.764,153.091c-0.53,2.41-1.954,3.903-3.811,3.995
	c-1.693,0.096-3.328-1.069-3.901-2.811c-2.188-6.667-2.302-15.659-2.237-23.566c0.073-11.548,1.368-23.666,2.837-34.297
	c1.875,5.579,3.375,11.288,4.457,17.004c1.181,6.245,2.137,12.786,2.842,19.443C60.758,140.477,61.216,146.389,59.764,153.091
	 M248.768,159.203c-1.5,0.433-2.667,0.407-3.281-0.076c-0.436-0.345-0.636-0.962-0.595-1.831c0.143-3.014,1.019-4.938,2.676-5.876
	c0.855-0.486,1.89-0.698,3.057-0.698c0.6,0,1.236,0.055,1.9,0.162C252.67,154.236,251.851,158.332,248.768,159.203"/>
<path d="M156.7,112.4c0.361,0.302,0.821,0.457,1.315,0.457c0.218,0,0.443-0.031,0.669-0.093c1.293-0.343,2.678-1.726,2.678-3.238
	v-2.157c0-0.397,0-1.226-0.709-1.831c-0.503-0.426-1.226-0.564-1.989-0.371c-1.293,0.343-2.678,1.733-2.678,3.255v2.145v0.002v0.002
	C155.986,110.948,155.989,111.821,156.7,112.4"/>
<polyline points="289.66,48.493 289.657,48.491 289.667,48.504 289.66,48.493 "/>
<path d="M263.523,47.925c-0.03-0.002-0.49-0.336-0.508-0.346c-0.373-0.204-1.176-0.415-1.88-0.554
	c-2.589-0.515-5.373-0.31-8.017,0.174c-0.003,0.293-0.006,0.585-0.008,0.877c-0.024,2.589-0.047,5.179-0.07,7.768
	c2.525-0.098,5.024-0.223,7.402-0.876c0.633-0.174,1.174-0.361,1.485-0.515c0.691-0.342,1.024-0.54,1.382-0.874
	c0.583-0.547,0.753-0.74,1.072-1.323c0.094-0.172,0.123-0.207,0.132-0.21c-0.001-0.014,0.007-0.07,0.063-0.264
	c0.003-0.012,0.19-0.951,0.133-0.464c0.15-1.281,0.021-1.971-0.782-3.009C263.988,48.407,263.648,48.056,263.523,47.925z"/>
<path d="M312.014,50.087c0.03,0.133,0.188,0.558,0.192,0.62c0.058,0.106,0.118,0.21,0.181,0.312
	c0.032,0.014,0.286,0.337,0.393,0.456c0.047,0.052,0.192,0.172,0.264,0.234c0.05,0.035,0.098,0.072,0.15,0.103
	c0.279,0.167,0.557,0.332,0.841,0.49c0.123,0.069,0.253,0.124,0.379,0.186c0.009,0.004,0.01,0.005,0.018,0.009
	c0.304,0.115,0.611,0.223,0.922,0.319c0.614,0.19,1.241,0.341,1.872,0.464c0.263,0.051,0.528,0.092,0.792,0.134
	c0.105,0.011,0.209,0.026,0.314,0.034c1.895,0.134,3.762-0.038,5.559-0.464c-0.374-1.191-0.913-2.298-1.671-3.235
	c-2.188-2.701-6.127-3.261-9.104-1.502c-0.156,0.092-0.732,0.513-0.748,0.502c-0.091,0.082-0.178,0.168-0.264,0.254
	c-0.037,0.23-0.09,0.373-0.091,0.398c-0.008,0.217-0.006,0.431,0.001,0.648C312.015,50.068,312.014,50.072,312.014,50.087z"/>
<path d="M290.084,50.648c-0.004-0.171,0.014-0.344,0.011-0.517c-0.002-0.166-0.016-0.331-0.026-0.497
	c-0.002-0.007-0.002-0.008-0.005-0.017c-0.062-0.258-0.169-0.551-0.224-0.82c-0.061-0.093-0.119-0.193-0.173-0.293
	c0.057,0.085,0.117,0.151,0.146,0.175c-0.002-0.009-0.001-0.01-0.001-0.018c-0.022-0.028-0.065-0.079-0.145-0.162
	c-0.002-0.002-0.005-0.004-0.007-0.006c-0.016-0.031-0.038-0.061-0.053-0.09c0.015,0.03,0.032,0.06,0.051,0.088
	c-0.062-0.06-0.182-0.141-0.241-0.217c-0.067-0.047-0.133-0.099-0.187-0.135c-0.079-0.052-0.207-0.093-0.292-0.151
	c-0.255-0.071-0.507-0.172-0.763-0.233c-0.158-0.038-0.331-0.052-0.486-0.098c-0.251-0.016-0.503-0.047-0.754-0.057
	c-0.659-0.026-1.319-0.005-1.977,0.047c-0.107,0.008-0.482,0.047-0.695,0.068c-0.182,0.029-0.585,0.087-0.653,0.099
	c-0.618,0.106-1.232,0.233-1.842,0.376c-0.613,0.144-1.225,0.306-1.834,0.481c-0.143,2.582-0.274,5.171-0.372,7.764
	c0.223-0.019,0.446-0.04,0.669-0.063c-0.261,0.022,0.515-0.069,0.73-0.107c0.816-0.143,1.626-0.324,2.424-0.546
	c0.431-0.119,0.858-0.251,1.282-0.395c0.212-0.073,0.421-0.151,0.632-0.228c0.031-0.011,0.115-0.043,0.196-0.074
	c0.135-0.061,0.464-0.204,0.517-0.23c0.16-0.076,0.318-0.154,0.474-0.234c0.31-0.16,0.615-0.329,0.913-0.51
	c0.286-0.174,0.557-0.364,0.834-0.552c0.114-0.1,0.232-0.196,0.344-0.298c0.282-0.258,0.532-0.537,0.787-0.82
	c0.077-0.127,0.165-0.248,0.241-0.376c0.077-0.13,0.14-0.27,0.219-0.398c0.097-0.308,0.178-0.613,0.263-0.926
	C290.086,50.666,290.084,50.664,290.084,50.648z"/>
<path d="M349.276,19.164c-6.128-9.587-14.106-14.591-30.874-17.641c-13.657-2.484-35.986-1.455-43.434-0.247
	c-6.058,0.982-27.867,3.479-37.702,16.894c-17.021,23.215-12.865,42.153-12.296,48.94c2.096,24.828,14.208,33.12,21.128,36.243
	c8.632,3.89,17.767,4.668,26.143,7.003c5.191,1.443,9.732,5.341,11.682,10.195c1.421,3.525,1.979,9.639-0.596,12.804
	c0.387,0.19,0.256-0.113,0.425-0.173l-0.226,0.417c2.304-0.959,4.93-3.342,6.436-5.798c2.271-3.703,3.995-5.882,6.643-9.401
	c2.833-3.772,9.954-5.552,14.213-7.784c9.898-5.189,43.072-4.001,47.222-40.299C359.446,57.98,359.388,34.99,349.276,19.164z
	 M263.376,60.452c-3.257,1.231-6.88,1.387-10.392,1.521c-0.028,3.176-0.057,6.353-0.086,9.529c-0.035,3.947-6.163,3.944-6.127,0
	c0.01-1.12,0.02-2.24,0.03-3.36c0.07-7.809,0.141-15.617,0.211-23.426c0.012-1.315,0.938-2.638,2.25-2.954
	c4.613-1.112,9.809-1.703,14.454-0.425c4.294,1.182,7.325,5.148,7.142,9.655C270.673,55.535,267.471,58.904,263.376,60.452z
	 M342.128,47.141c-2.698,4.22-6.62,7.762-11.118,10.058c0.024,1.593-0.094,3.189-0.368,4.748c-0.773,4.401-3.211,9.071-7.371,11.114
	c-3.507,1.723-7.898,1.87-11.528,0.442c-1.653-0.651-3.073-1.582-4.264-2.723c-1.915,2.239-4.468,3.846-7.561,4.2
	c-3.64,0.416-6.834-1.451-9.134-4.131c-0.986-1.15-1.872-2.387-2.781-3.599c-0.023-0.032-0.188-0.241-0.275-0.354
	c-0.19-0.237-0.379-0.474-0.576-0.705c-0.41-0.479-0.837-0.944-1.297-1.375c-0.695-0.652-1.632-1.255-2.553-1.515
	c-0.091-0.025-0.751-0.149-0.816-0.178c-0.259-0.024-0.52-0.042-0.78-0.045c-0.985-0.01-1.44,0.068-2.297,0.264
	c-0.015,2.726,0.029,5.448,0.174,8.16c0.092,1.732-1.537,3.196-3.197,3.196c-1.793,0-3.104-1.472-3.196-3.196
	c-0.447-8.366,0.005-16.83,0.484-25.188c0.088-1.519,0.946-2.547,2.347-3.082c1.999-0.763,4.12-1.304,6.23-1.639
	c3.41-0.543,7.316-0.793,10.376,1.13c3.488,2.194,4.692,6.881,3.333,10.68c-1.033,2.887-3.244,5.047-5.951,6.579
	c1.384,1.259,2.546,2.753,3.678,4.259c0.341,0.454,0.677,0.911,1.022,1.362c0.082,0.103,0.215,0.271,0.263,0.327
	c0.222,0.263,0.44,0.53,0.672,0.785c0.366,0.403,0.757,0.773,1.159,1.14c0.01,0.007,0.011,0.009,0.019,0.016
	c0.069,0.048,0.136,0.098,0.206,0.145c0.254,0.151,0.503,0.331,0.777,0.446c1.082,0.452,2.223,0.167,3.328-0.499
	c1.113-0.671,2.175-1.845,2.717-3.004c-0.413-1.212-0.694-2.489-0.836-3.802c-0.516-4.755,0.297-10.728,3.136-14.779
	c0.312-0.706,0.742-1.364,1.322-1.943c1.688-1.69,4.091-2.896,6.406-3.411c5.857-1.303,11.834,1.479,14.746,6.7
	c0.494,0.886,0.886,1.814,1.221,2.761c2.662-1.662,4.964-3.935,6.68-6.619C338.77,40.355,344.384,43.612,342.128,47.141z"/>
<path d="M313.764,59.113c-1.559-0.467-3.045-1.156-4.316-2.077c-0.158,1.589-0.149,3.239,0.186,4.72
	c0.446,1.972,1.256,3.562,2.704,4.763c0.069,0.056,0.319,0.233,0.728,0.472c0.099,0.057,0.599,0.31,0.661,0.354
	c0.689,0.284,1.441,0.475,2.179,0.583c0.086-0.005,0.685,0.04,0.822,0.043c0.345,0.007,0.691-0.001,1.035-0.022
	c0.155-0.01,0.528-0.064,0.625-0.074c0.232-0.044,0.465-0.087,0.695-0.146c0.315-0.08,0.619-0.187,0.929-0.283
	c0.091-0.043,0.184-0.083,0.27-0.132c0.775-0.446,0.665-0.323,1.277-0.916c0.932-0.904,1.67-2.164,2.086-3.335
	c0.456-1.286,0.706-2.397,0.826-3.547C320.972,60.233,317.328,60.182,313.764,59.113z"/>
</svg>
